<?xml version="1.0" encoding="UTF-8"?>
<svg width="200" height="60" viewBox="0 0 200 60" fill="none" xmlns="http://www.w3.org/2000/svg">
  <path d="M26.32 40.52C21.868 40.52 18.264 39.112 15.508 36.296C12.752 33.48 11.374 29.828 11.374 25.34C11.374 20.852 12.752 17.2 15.508 14.384C18.264 11.568 21.868 10.16 26.32 10.16C30.772 10.16 34.376 11.568 37.132 14.384C39.888 17.2 41.266 20.852 41.266 25.34C41.266 29.828 39.888 33.48 37.132 36.296C34.376 39.112 30.772 40.52 26.32 40.52ZM26.32 35.86C29.364 35.86 31.75 34.908 33.478 33.004C35.206 31.1 36.07 28.508 36.07 25.228C36.07 21.948 35.206 19.356 33.478 17.452C31.75 15.548 29.364 14.596 26.32 14.596C23.276 14.596 20.89 15.548 19.162 17.452C17.434 19.356 16.57 21.948 16.57 25.228C16.57 28.508 17.434 31.1 19.162 33.004C20.89 34.908 23.276 35.86 26.32 35.86Z" fill="black"/>
  <path d="M54.5675 40.128L44.0635 10.552H49.6515L56.9675 33.228L64.7315 10.552H70.0955L77.8035 33.228L85.1195 10.552H90.7075L80.2035 40.128H75.0595L67.4135 18.2L59.7675 40.128H54.5675Z" fill="black"/>
  <path d="M103.143 40.52C100.107 40.52 97.551 39.42 95.475 37.22C93.399 35.02 92.361 32.3 92.361 29.06C92.361 25.82 93.399 23.1 95.475 20.9C97.551 18.7 100.107 17.6 103.143 17.6C106.179 17.6 108.735 18.7 110.811 20.9C112.887 23.1 113.925 25.82 113.925 29.06C113.925 32.3 112.887 35.02 110.811 37.22C108.735 39.42 106.179 40.52 103.143 40.52ZM103.143 36.52C104.871 36.52 106.283 35.86 107.379 34.54C108.475 33.22 109.023 31.38 109.023 29.02C109.023 26.66 108.475 24.82 107.379 23.5C106.283 22.18 104.871 21.52 103.143 21.52C101.415 21.52 100.003 22.18 98.907 23.5C97.811 24.82 97.263 26.66 97.263 29.02C97.263 31.38 97.811 33.22 98.907 34.54C100.003 35.86 101.415 36.52 103.143 36.52Z" fill="black"/>
  <path d="M118.578 40V18H123.31V20.66C123.97 19.74 124.73 19.1 125.59 18.74C126.45 18.38 127.39 18.2 128.41 18.2C130.21 18.2 131.71 18.74 132.91 19.82C134.11 20.9 134.71 22.48 134.71 24.56V40H129.87V26.12C129.87 24.84 129.57 23.88 128.97 23.24C128.37 22.6 127.53 22.28 126.45 22.28C125.29 22.28 124.41 22.62 123.81 23.3C123.21 23.98 122.91 24.98 122.91 26.3V40H118.578Z" fill="black"/>
  <path d="M158.144 40V20.3H152.608V18.08H158.144V11.2H162.976V18.08H168.512V20.3H162.976V40H158.144Z" fill="black"/>
  <path d="M177.649 12.14C176.713 12.14 175.901 11.88 175.213 11.36C174.525 10.84 174.181 10.16 174.181 9.32C174.181 8.48 174.525 7.8 175.213 7.28C175.901 6.76 176.713 6.5 177.649 6.5C178.585 6.5 179.397 6.76 180.085 7.28C180.773 7.8 181.117 8.48 181.117 9.32C181.117 10.16 180.773 10.84 180.085 11.36C179.397 11.88 178.585 12.14 177.649 12.14ZM175.289 40V18H180.129V40H175.289Z" fill="black"/>
  <path d="M184.781 40V18H189.621V20.02C190.841 18.74 192.461 18.1 194.481 18.1C196.301 18.1 197.761 18.6 198.861 19.6C199.961 20.6 200.511 22.08 200.511 24.04V40H195.671V25.68C195.671 24.48 195.391 23.58 194.831 22.98C194.271 22.38 193.471 22.08 192.431 22.08C191.391 22.08 190.541 22.4 189.881 23.04C189.221 23.68 188.901 24.62 188.921 25.86V40H184.781Z" fill="black"/>
  <path d="M61.824 53.96V47.68H62.908V50.192H65.66V47.68H66.744V53.96H65.66V51.128H62.908V53.96H61.824Z" fill="black"/>
  <path d="M76.4154 53.96V47.68H77.4994V53.96H76.4154Z" fill="black"/>
  <path d="M86.9352 53.96V47.68H89.0872C89.6792 47.68 90.1832 47.776 90.5992 47.968C91.0152 48.152 91.3352 48.416 91.5592 48.76C91.7832 49.104 91.8952 49.512 91.8952 49.984C91.8952 50.448 91.7832 50.848 91.5592 51.184C91.3352 51.52 91.0152 51.776 90.5992 51.952C90.1832 52.128 89.6792 52.216 89.0872 52.216H87.2232V51.28H88.9992C89.3432 51.28 89.6312 51.232 89.8632 51.136C90.0952 51.04 90.2712 50.896 90.3912 50.704C90.5112 50.504 90.5712 50.264 90.5712 49.984C90.5712 49.696 90.5112 49.456 90.3912 49.264C90.2712 49.064 90.0952 48.916 89.8632 48.82C89.6312 48.724 89.3432 48.676 88.9992 48.676H88.0192V53.96H86.9352Z" fill="black"/>
  <path d="M99.0889 49.764C99.3689 49.364 99.7489 49.068 100.229 48.876C100.709 48.684 101.277 48.588 101.933 48.588V49.636C101.869 49.628 101.813 49.624 101.765 49.624C101.085 49.624 100.549 49.824 100.157 50.224C99.7729 50.624 99.5809 51.196 99.5809 51.94V53.96H98.4969V48.684H99.5809V49.764H99.0889Z" fill="black"/>
  <path d="M107.866 53.96V47.68H109.546C110.154 47.68 110.69 47.772 111.154 47.956C111.626 48.132 111.998 48.392 112.27 48.736C112.542 49.072 112.734 49.48 112.846 49.96C112.958 50.432 113.014 50.952 113.014 51.52V52.108C113.014 52.684 112.958 53.208 112.846 53.68C112.734 54.152 112.542 54.556 112.27 54.892C111.998 55.228 111.63 55.488 111.166 55.672C110.71 55.848 110.174 55.936 109.558 55.936H107.866V53.96ZM109.558 54.98C110.03 54.98 110.414 54.912 110.71 54.776C111.014 54.64 111.25 54.44 111.418 54.176C111.586 53.904 111.706 53.572 111.778 53.18C111.85 52.788 111.886 52.348 111.886 51.86V51.768C111.886 51.28 111.85 50.84 111.778 50.448C111.706 50.056 111.586 49.728 111.418 49.464C111.25 49.192 111.014 48.988 110.71 48.852C110.414 48.716 110.026 48.648 109.546 48.648H108.962V54.98H109.558Z" fill="black"/>
  <path d="M114.879 54.968L117.459 48.312H118.619L121.199 54.968V54.98H120.059L119.375 53.288H116.703L116.019 54.98H114.879V54.968ZM117.039 52.352H119.039L118.039 50.084L117.039 52.352Z" fill="black"/>
  <path d="M127.683 53.96V47.68H128.767V53.024H131.807V53.96H127.683Z" fill="black"/>
  <path d="M141.488 53.96V47.68H142.572V53.96H141.488Z" fill="black"/>
  <path d="M153.001 53.96V47.68H154.085V48.568H154.121C154.217 48.304 154.385 48.08 154.625 47.896C154.865 47.712 155.177 47.62 155.561 47.62C155.633 47.62 155.721 47.624 155.825 47.632C155.937 47.64 156.025 47.648 156.089 47.656V48.652C156.049 48.644 155.969 48.632 155.849 48.616C155.729 48.592 155.613 48.58 155.501 48.58C155.209 48.58 154.957 48.648 154.745 48.784C154.541 48.912 154.385 49.092 154.277 49.324C154.169 49.548 154.115 49.804 154.115 50.092V53.96H153.001Z" fill="black"/>
  <path d="M160.617 52.784C160.617 52.608 160.673 52.46 160.785 52.34C160.905 52.22 161.073 52.16 161.289 52.16C161.505 52.16 161.669 52.22 161.781 52.34C161.901 52.46 161.961 52.608 161.961 52.784C161.961 52.952 161.901 53.096 161.781 53.216C161.669 53.328 161.505 53.384 161.289 53.384C161.073 53.384 160.905 53.328 160.785 53.216C160.673 53.096 160.617 52.952 160.617 52.784Z" fill="black"/>
  <path d="M170.359 53.3C169.911 53.14 169.555 52.9 169.291 52.58C169.027 52.26 168.883 51.88 168.859 51.44H170.051C170.075 51.704 170.195 51.924 170.411 52.1C170.635 52.268 170.927 52.352 171.287 52.352C171.631 52.352 171.899 52.268 172.091 52.1C172.291 51.932 172.391 51.716 172.391 51.452C172.391 51.236 172.331 51.06 172.211 50.924C172.091 50.788 171.935 50.684 171.743 50.612C171.551 50.532 171.299 50.448 170.987 50.36C170.579 50.248 170.239 50.136 169.967 50.024C169.703 49.912 169.475 49.744 169.283 49.52C169.099 49.288 169.007 48.98 169.007 48.596C169.007 48.26 169.091 47.964 169.259 47.708C169.435 47.452 169.683 47.252 170.003 47.108C170.323 46.964 170.695 46.892 171.119 46.892C171.767 46.892 172.279 47.056 172.655 47.384C173.039 47.704 173.247 48.148 173.279 48.716H172.127C172.103 48.46 171.995 48.256 171.803 48.104C171.619 47.944 171.363 47.864 171.035 47.864C170.731 47.864 170.487 47.94 170.303 48.092C170.119 48.244 170.027 48.444 170.027 48.692C170.027 48.892 170.083 49.052 170.195 49.172C170.315 49.292 170.463 49.388 170.639 49.46C170.823 49.532 171.071 49.616 171.383 49.712C171.791 49.824 172.127 49.94 172.391 50.06C172.663 50.172 172.891 50.344 173.075 50.576C173.267 50.8 173.363 51.108 173.363 51.5C173.363 51.804 173.279 52.092 173.111 52.364C172.943 52.628 172.695 52.844 172.367 53.012C172.039 53.18 171.639 53.264 171.167 53.264C170.787 53.264 170.439 53.276 170.359 53.3Z" fill="black"/>
  <path d="M175.063 54.968L177.643 48.312H178.803L181.383 54.968V54.98H180.243L179.559 53.288H176.887L176.203 54.98H175.063V54.968ZM177.223 52.352H179.223L178.223 50.084L177.223 52.352Z" fill="black"/>
</svg> 